<svg width="159" height="90" viewBox="0 0 159 90" fill="none" xmlns="http://www.w3.org/2000/svg">
<path fill-rule="evenodd" clip-rule="evenodd" d="M35 65C36.3261 65 37.5979 65.5268 38.5355 66.4645C39.4732 67.4021 40 68.6739 40 70V75.86C39.9978 79.8362 38.417 83.6488 35.605 86.46L33.535 88.535C32.592 89.4458 31.329 89.9498 30.018 89.9384C28.707 89.927 27.4529 89.4011 26.5259 88.4741C25.5989 87.5471 25.073 86.293 25.0616 84.982C25.0502 83.671 25.5542 82.408 26.465 81.465L28.535 79.395C29.4727 78.4575 29.9997 77.186 30 75.86V70C30 68.6739 30.5268 67.4021 31.4645 66.4645C32.4021 65.5268 33.6739 65 35 65ZM55 65C56.2247 65.0002 57.4067 65.4498 58.3219 66.2636C59.237 67.0774 59.8217 68.1987 59.965 69.415L60 70V75.86C59.9999 76.959 60.3619 78.0274 61.03 78.9L61.465 79.395L63.535 81.465C64.4317 82.3648 64.9524 83.5722 64.9911 84.8419C65.0299 86.1117 64.5839 87.3486 63.7438 88.3014C62.9036 89.2542 61.7322 89.8515 60.4676 89.972C59.203 90.0925 57.94 89.7271 56.935 88.95L56.465 88.535L54.395 86.465C51.8245 83.8942 50.2752 80.4775 50.035 76.85L50 75.86V70C50 68.6739 50.5268 67.4021 51.4645 66.4645C52.4021 65.5268 53.6739 65 55 65ZM15 65C16.2247 65.0002 17.4067 65.4498 18.3219 66.2636C19.237 67.0774 19.8217 68.1987 19.965 69.415L20 70V73.065C19.9992 75.0268 19.4215 76.945 18.3386 78.5809C17.2557 80.2167 15.7156 81.4979 13.91 82.265L13.16 82.55L6.58 84.745C5.37102 85.1434 4.0556 85.0657 2.90195 84.5277C1.7483 83.9897 0.843277 83.0319 0.371403 81.8497C-0.100472 80.6674 -0.103668 79.3497 0.362468 78.1652C0.828604 76.9807 1.72897 76.0186 2.88 75.475L3.42 75.255L10 73.065V70C10 68.6739 10.5268 67.4021 11.4645 66.4645C12.4021 65.5268 13.6739 65 15 65ZM75 65C76.2247 65.0002 77.4067 65.4498 78.3219 66.2636C79.237 67.0774 79.8217 68.1987 79.965 69.415L80 70V73.065L86.58 75.255C87.7933 75.656 88.8071 76.5063 89.4131 77.6313C90.019 78.7564 90.1713 80.0707 89.8385 81.3045C89.5058 82.5383 88.7133 83.5978 87.6237 84.2655C86.5342 84.9333 85.2304 85.1585 83.98 84.895L83.42 84.745L76.84 82.545C74.9786 81.9256 73.3406 80.7725 72.1297 79.2291C70.9188 77.6857 70.1886 75.8203 70.03 73.865L70 73.065V70C70 68.6739 70.5268 67.4021 71.4645 66.4645C72.4021 65.5268 73.6739 65 75 65ZM75 2.33022e-08C78.8261 -0.000213109 82.5076 1.46163 85.2913 4.08642C88.075 6.71121 89.7505 10.3005 89.975 14.12L90 15V45C90.0002 48.8261 88.5384 52.5076 85.9136 55.2913C83.2888 58.075 79.6995 59.7505 75.88 59.975L75 60H15C11.1739 60.0002 7.49243 58.5384 4.7087 55.9136C1.92497 53.2888 0.249462 49.6995 0.0250006 45.88L2.33022e-08 45V15C-0.000213109 11.1739 1.46163 7.49243 4.08642 4.7087C6.71121 1.92497 10.3005 0.249462 14.12 0.0250006L15 2.33022e-08H75ZM75 40H15C13.6739 40 12.4021 40.5268 11.4645 41.4645C10.5268 42.4021 10 43.6739 10 45V50H80V45C80 43.6739 79.4732 42.4021 78.5355 41.4645C77.5979 40.5268 76.3261 40 75 40ZM70 15C68.6739 15 67.4021 15.5268 66.4645 16.4645C65.5268 17.4021 65 18.6739 65 20C65 21.3261 65.5268 22.5979 66.4645 23.5355C67.4021 24.4732 68.6739 25 70 25C71.3261 25 72.5979 24.4732 73.5355 23.5355C74.4732 22.5979 75 21.3261 75 20C75 18.6739 74.4732 17.4021 73.5355 16.4645C72.5979 15.5268 71.3261 15 70 15Z" fill="#6C91C0"/>
<path d="M119.657 18.9936C120.104 18.7304 120.775 18.4805 121.669 18.2437C122.59 18.0069 123.511 17.8885 124.432 17.8885C125.748 17.8885 126.905 18.0858 127.905 18.4805C128.931 18.8488 129.589 19.4408 129.878 20.2565C130.352 21.6247 130.865 23.2165 131.418 25.032C131.97 26.8474 132.523 28.7287 133.075 30.6757C133.628 32.5964 134.167 34.504 134.693 36.3984C135.22 38.2664 135.68 39.924 136.075 41.3712C135.759 41.7395 135.285 42.0289 134.654 42.2394C134.022 42.4762 133.273 42.5946 132.404 42.5946C131.773 42.5946 131.233 42.542 130.786 42.4368C130.365 42.3315 130.01 42.1736 129.721 41.9632C129.457 41.7527 129.234 41.4764 129.05 41.1344C128.892 40.7923 128.747 40.3976 128.615 39.9504L127.905 37.2272H120.762C120.551 38.0165 120.341 38.8321 120.13 39.6741C119.92 40.516 119.709 41.3317 119.499 42.121C119.13 42.2526 118.736 42.3578 118.315 42.4368C117.92 42.542 117.433 42.5946 116.854 42.5946C115.513 42.5946 114.513 42.371 113.855 41.9237C113.223 41.4501 112.908 40.8055 112.908 39.9898C112.908 39.6215 112.96 39.2531 113.066 38.8848C113.171 38.5164 113.289 38.0823 113.421 37.5824C113.605 36.872 113.855 35.9905 114.171 34.9381C114.513 33.8856 114.881 32.7543 115.276 31.544C115.67 30.3073 116.091 29.0444 116.539 27.7552C116.986 26.4659 117.407 25.2556 117.802 24.1242C118.196 22.9665 118.551 21.9404 118.867 21.0458C119.209 20.1512 119.472 19.4672 119.657 18.9936ZM124.393 24.0848C124.024 25.1898 123.603 26.4264 123.13 27.7946C122.682 29.1365 122.274 30.5047 121.906 31.8992H126.8C126.432 30.4784 126.05 29.097 125.655 27.7552C125.287 26.387 124.945 25.1635 124.629 24.0848H124.393ZM151.119 23.0981C149.093 23.0981 147.541 23.7164 146.462 24.953C145.383 26.1896 144.844 27.9393 144.844 30.2021C144.844 32.4912 145.436 34.254 146.62 35.4906C147.83 36.7272 149.448 37.3456 151.474 37.3456C152.553 37.3456 153.461 37.2008 154.197 36.9114C154.96 36.622 155.684 36.2931 156.368 35.9248C156.815 36.2931 157.157 36.7404 157.394 37.2666C157.657 37.7665 157.789 38.3585 157.789 39.0426C157.789 40.1214 157.184 41.0423 155.973 41.8053C154.789 42.542 152.974 42.9104 150.527 42.9104C148.764 42.9104 147.106 42.6604 145.554 42.1605C144.002 41.6606 142.647 40.8976 141.489 39.8714C140.331 38.819 139.41 37.5034 138.726 35.9248C138.069 34.3198 137.74 32.4122 137.74 30.2021C137.74 28.1498 138.055 26.3475 138.687 24.7952C139.345 23.2165 140.226 21.8878 141.331 20.809C142.463 19.7303 143.778 18.9146 145.278 18.3621C146.778 17.8096 148.383 17.5333 150.093 17.5333C152.513 17.5333 154.381 17.928 155.697 18.7173C157.039 19.5066 157.71 20.5196 157.71 21.7562C157.71 22.4403 157.539 23.0323 157.197 23.5322C156.855 24.0321 156.46 24.4268 156.013 24.7162C155.329 24.2689 154.592 23.8874 153.803 23.5717C153.04 23.256 152.145 23.0981 151.119 23.0981Z" fill="#6C91C0"/>
</svg>
