<svg width="23" height="30" viewBox="0 0 23 30" fill="none" xmlns="http://www.w3.org/2000/svg">
<path d="M1.64286 26.6667C1.64286 27.5507 1.98903 28.3986 2.60522 29.0237C3.22141 29.6488 4.05715 30 4.92857 30H18.0714C18.9429 30 19.7786 29.6488 20.3948 29.0237C21.011 28.3986 21.3571 27.5507 21.3571 26.6667V6.66667H1.64286V26.6667ZM5.68429 14.8L8.00071 12.45L11.5 15.9833L14.9829 12.45L17.2993 14.8L13.8164 18.3333L17.2993 21.8667L14.9829 24.2167L11.5 20.6833L8.01714 24.2167L5.70072 21.8667L9.18357 18.3333L5.68429 14.8ZM17.25 1.66667L15.6071 0H7.39286L5.75 1.66667H0V5H23V1.66667H17.25Z" fill="#6C91C0"/>
</svg>
