<svg width="44" height="44" viewBox="0 0 44 44" fill="none" xmlns="http://www.w3.org/2000/svg">
<path d="M42.8425 6.16398L37.3764 0.697862C36.9066 0.249902 36.2823 0 35.6332 0C34.984 0 34.3597 0.249902 33.8899 0.697862L29.0295 5.57305H2.95466C2.17103 5.57305 1.4195 5.88434 0.865399 6.43845C0.311293 6.99255 0 7.74408 0 8.5277V41.0289C0 41.8125 0.311293 42.5641 0.865399 43.1182C1.4195 43.6723 2.17103 43.9836 2.95466 43.9836H35.4559C36.2395 43.9836 36.991 43.6723 37.5451 43.1182C38.0992 42.5641 38.4105 41.8125 38.4105 41.0289V14.0825L42.8425 9.65047C43.3044 9.1879 43.5638 8.56092 43.5638 7.90723C43.5638 7.25353 43.3044 6.62655 42.8425 6.16398ZM21.9088 26.4477L15.7188 27.8216L17.1961 21.6907L31.3046 7.55267L36.0764 12.3244L21.9088 26.4477ZM37.6719 10.6403L32.9001 5.86851L35.6332 3.13545L40.4049 7.90723L37.6719 10.6403Z" fill="#6C91C0"/>
</svg>
