<svg width="204" height="219" viewBox="0 0 204 219" fill="none" xmlns="http://www.w3.org/2000/svg">
<path d="M60.0186 137.01H148.348V54.343" stroke="#BBCCE2" stroke-width="7.92696" stroke-linecap="round"/>
<path d="M59.3564 132.013V93.4115M143.446 54.0984H59.3564V93.4115M59.3564 93.4115H96.4042" stroke="#36557D" stroke-width="16.9863" stroke-linecap="round"/>
<path d="M147.214 89.4481H100.785V112.663M100.785 135.877V112.663M100.785 112.663H147.214" stroke="#6C91C0" stroke-width="9.30501" stroke-linecap="round"/>
<path d="M31.4414 50.4014L101.401 10.1785L169.121 50.4014" stroke="#6C91C0" stroke-width="17.5761" stroke-linecap="round"/>
<path d="M20.4515 171.622C20.6458 171.928 20.8125 172.344 20.9513 172.872C21.1179 173.372 21.2012 173.899 21.2012 174.455C21.2012 175.538 20.9652 176.315 20.4931 176.787C20.0488 177.231 19.4379 177.454 18.6604 177.454H9.91334V182.16H19.0353C19.2574 182.466 19.4379 182.868 19.5768 183.368C19.7434 183.868 19.8267 184.396 19.8267 184.951C19.8267 186.006 19.5906 186.77 19.1186 187.242C18.6743 187.686 18.0634 187.908 17.2859 187.908H9.99664V196.697C9.69119 196.78 9.20524 196.864 8.5388 196.947C7.90013 197.03 7.26145 197.072 6.62278 197.072C5.9841 197.072 5.41485 197.016 4.91502 196.905C4.44295 196.822 4.04031 196.655 3.70709 196.406C3.37387 196.156 3.12395 195.809 2.95734 195.364C2.79073 194.92 2.70742 194.337 2.70742 193.615V175.496C2.70742 174.302 3.05453 173.358 3.74874 172.664C4.44295 171.969 5.38708 171.622 6.58112 171.622H20.4515ZM31.4998 196.822C31.1944 196.878 30.7362 196.947 30.1253 197.03C29.5422 197.141 28.9451 197.197 28.3342 197.197C27.7233 197.197 27.168 197.155 26.6681 197.072C26.1961 196.989 25.7934 196.822 25.4602 196.572C25.127 196.322 24.8632 195.989 24.6688 195.572C24.5022 195.128 24.4189 194.559 24.4189 193.865V169.706C24.7243 169.651 25.1686 169.581 25.7518 169.498C26.3627 169.387 26.9736 169.331 27.5845 169.331C28.1954 169.331 28.7369 169.373 29.2089 169.456C29.7088 169.54 30.1253 169.706 30.4585 169.956C30.7917 170.206 31.0417 170.553 31.2083 170.997C31.4027 171.414 31.4998 171.969 31.4998 172.664V196.822ZM44.6318 192.365C45.1039 192.365 45.6176 192.324 46.173 192.24C46.7561 192.129 47.1865 191.99 47.4642 191.824V188.492L44.4652 188.741C43.6877 188.797 43.049 188.964 42.5492 189.241C42.0494 189.519 41.7994 189.936 41.7994 190.491C41.7994 191.046 42.0077 191.504 42.4242 191.865C42.8685 192.199 43.6044 192.365 44.6318 192.365ZM44.2986 175.996C45.7981 175.996 47.1588 176.148 48.3806 176.454C49.6301 176.759 50.6853 177.231 51.5462 177.87C52.4348 178.481 53.1151 179.272 53.5872 180.244C54.0592 181.188 54.2952 182.313 54.2952 183.618V192.948C54.2952 193.67 54.087 194.267 53.6705 194.739C53.2817 195.184 52.8096 195.572 52.2543 195.906C50.4493 196.989 47.9085 197.53 44.6318 197.53C43.1601 197.53 41.8272 197.391 40.6332 197.114C39.4669 196.836 38.4533 196.419 37.5925 195.864C36.7595 195.309 36.1069 194.601 35.6348 193.74C35.1906 192.879 34.9684 191.879 34.9684 190.741C34.9684 188.825 35.5377 187.353 36.6762 186.326C37.8147 185.298 39.578 184.659 41.9661 184.41L47.4226 183.826V183.535C47.4226 182.73 47.0616 182.16 46.3396 181.827C45.6454 181.466 44.6318 181.286 43.2989 181.286C42.2437 181.286 41.2163 181.397 40.2166 181.619C39.217 181.841 38.3145 182.119 37.5092 182.452C37.1482 182.202 36.8428 181.827 36.5929 181.327C36.3429 180.8 36.218 180.258 36.218 179.703C36.218 178.981 36.3846 178.412 36.7178 177.995C37.0788 177.551 37.6203 177.176 38.3423 176.87C39.1476 176.565 40.0917 176.343 41.1747 176.204C42.2854 176.065 43.3267 175.996 44.2986 175.996ZM65.7058 189.908C65.7058 190.63 65.928 191.143 66.3722 191.449C66.8443 191.754 67.4969 191.907 68.3299 191.907C68.7464 191.907 69.1769 191.879 69.6212 191.824C70.0655 191.74 70.4542 191.643 70.7874 191.532C71.0373 191.838 71.2456 192.185 71.4122 192.574C71.6066 192.934 71.7038 193.379 71.7038 193.906C71.7038 194.962 71.3011 195.822 70.4959 196.489C69.7183 197.155 68.3299 197.489 66.3306 197.489C63.887 197.489 61.9987 196.933 60.6658 195.822C59.3607 194.712 58.7082 192.907 58.7082 190.408V172.58C59.0136 172.497 59.444 172.414 59.9994 172.33C60.5825 172.219 61.1934 172.164 61.8321 172.164C63.0539 172.164 63.998 172.386 64.6645 172.83C65.3587 173.247 65.7058 174.149 65.7058 175.538V178.203H71.1623C71.3289 178.509 71.4816 178.898 71.6205 179.37C71.7871 179.814 71.8704 180.314 71.8704 180.869C71.8704 181.841 71.6483 182.549 71.204 182.993C70.7874 183.41 70.2182 183.618 69.4962 183.618H65.7058V189.908ZM101.926 171.622C102.121 171.928 102.287 172.344 102.426 172.872C102.593 173.372 102.676 173.899 102.676 174.455C102.676 175.538 102.44 176.315 101.968 176.787C101.524 177.231 100.913 177.454 100.135 177.454H91.3883V182.16H100.51C100.732 182.466 100.913 182.868 101.052 183.368C101.218 183.868 101.302 184.396 101.302 184.951C101.302 186.006 101.066 186.77 100.594 187.242C100.149 187.686 99.5383 187.908 98.7608 187.908H91.4716V196.697C91.1661 196.78 90.6802 196.864 90.0137 196.947C89.375 197.03 88.7364 197.072 88.0977 197.072C87.459 197.072 86.8898 197.016 86.3899 196.905C85.9179 196.822 85.5152 196.655 85.182 196.406C84.8488 196.156 84.5989 195.809 84.4323 195.364C84.2657 194.92 84.1823 194.337 84.1823 193.615V175.496C84.1823 174.302 84.5295 173.358 85.2237 172.664C85.9179 171.969 86.862 171.622 88.056 171.622H101.926ZM105.277 170.997C105.277 169.942 105.624 169.054 106.318 168.332C107.04 167.61 107.984 167.249 109.151 167.249C110.317 167.249 111.247 167.61 111.941 168.332C112.663 169.054 113.024 169.942 113.024 170.997C113.024 172.053 112.663 172.941 111.941 173.663C111.247 174.385 110.317 174.746 109.151 174.746C107.984 174.746 107.04 174.385 106.318 173.663C105.624 172.941 105.277 172.053 105.277 170.997ZM112.691 196.822C112.386 196.878 111.927 196.947 111.316 197.03C110.733 197.141 110.136 197.197 109.525 197.197C108.914 197.197 108.359 197.155 107.859 197.072C107.387 196.989 106.985 196.822 106.651 196.572C106.318 196.322 106.054 195.989 105.86 195.572C105.693 195.128 105.61 194.559 105.61 193.865V176.912C105.915 176.857 106.36 176.787 106.943 176.704C107.554 176.593 108.165 176.537 108.776 176.537C109.387 176.537 109.928 176.579 110.4 176.662C110.9 176.745 111.316 176.912 111.65 177.162C111.983 177.412 112.233 177.759 112.399 178.203C112.594 178.62 112.691 179.175 112.691 179.869V196.822ZM130.028 184.035C130.028 183.174 129.778 182.549 129.278 182.16C128.806 181.744 128.154 181.536 127.321 181.536C126.765 181.536 126.21 181.605 125.654 181.744C125.127 181.883 124.669 182.091 124.28 182.369V196.822C124.002 196.905 123.558 196.989 122.947 197.072C122.364 197.155 121.753 197.197 121.114 197.197C120.503 197.197 119.948 197.155 119.448 197.072C118.976 196.989 118.573 196.822 118.24 196.572C117.907 196.322 117.643 195.989 117.449 195.572C117.282 195.128 117.199 194.559 117.199 193.865V181.369C117.199 180.619 117.352 180.008 117.657 179.536C117.99 179.064 118.435 178.634 118.99 178.245C119.934 177.579 121.114 177.037 122.53 176.621C123.974 176.204 125.571 175.996 127.321 175.996C130.458 175.996 132.874 176.69 134.568 178.078C136.262 179.439 137.109 181.341 137.109 183.785V196.822C136.831 196.905 136.387 196.989 135.776 197.072C135.193 197.155 134.582 197.197 133.943 197.197C133.332 197.197 132.777 197.155 132.277 197.072C131.805 196.989 131.402 196.822 131.069 196.572C130.736 196.322 130.472 195.989 130.278 195.572C130.111 195.128 130.028 194.559 130.028 193.865V184.035ZM140.608 186.742C140.608 184.909 140.886 183.327 141.441 181.994C141.996 180.633 142.76 179.508 143.732 178.62C144.732 177.731 145.884 177.079 147.189 176.662C148.522 176.218 149.952 175.996 151.479 175.996C152.035 175.996 152.576 176.051 153.104 176.162C153.631 176.246 154.062 176.357 154.395 176.496V169.748C154.673 169.665 155.117 169.581 155.728 169.498C156.339 169.387 156.964 169.331 157.602 169.331C158.213 169.331 158.755 169.373 159.227 169.456C159.727 169.54 160.143 169.706 160.476 169.956C160.81 170.206 161.06 170.553 161.226 170.997C161.393 171.414 161.476 171.969 161.476 172.664V192.407C161.476 193.712 160.865 194.753 159.643 195.531C158.838 196.058 157.797 196.517 156.519 196.905C155.242 197.322 153.77 197.53 152.104 197.53C150.299 197.53 148.675 197.28 147.231 196.78C145.815 196.281 144.607 195.559 143.607 194.614C142.635 193.67 141.885 192.546 141.358 191.241C140.858 189.908 140.608 188.408 140.608 186.742ZM152.437 181.536C150.938 181.536 149.786 181.966 148.98 182.827C148.175 183.688 147.772 184.993 147.772 186.742C147.772 188.464 148.147 189.769 148.897 190.657C149.647 191.518 150.73 191.949 152.146 191.949C152.646 191.949 153.09 191.879 153.479 191.74C153.895 191.574 154.215 191.393 154.437 191.199V182.035C153.881 181.702 153.215 181.536 152.437 181.536ZM176.593 197.53C174.955 197.53 173.428 197.308 172.012 196.864C170.623 196.392 169.401 195.697 168.346 194.781C167.319 193.865 166.5 192.712 165.889 191.324C165.305 189.936 165.014 188.311 165.014 186.451C165.014 184.618 165.305 183.049 165.889 181.744C166.5 180.411 167.291 179.328 168.263 178.495C169.235 177.634 170.345 177.009 171.595 176.621C172.845 176.204 174.122 175.996 175.427 175.996C176.899 175.996 178.232 176.218 179.426 176.662C180.648 177.106 181.689 177.717 182.55 178.495C183.438 179.272 184.119 180.203 184.591 181.286C185.091 182.369 185.34 183.549 185.34 184.826C185.34 185.77 185.077 186.492 184.549 186.992C184.021 187.492 183.286 187.811 182.341 187.95L172.053 189.491C172.359 190.408 172.983 191.102 173.928 191.574C174.872 192.018 175.955 192.24 177.177 192.24C178.315 192.24 179.384 192.101 180.384 191.824C181.411 191.518 182.244 191.171 182.883 190.782C183.327 191.06 183.702 191.449 184.008 191.949C184.313 192.449 184.466 192.976 184.466 193.532C184.466 194.781 183.883 195.711 182.716 196.322C181.828 196.794 180.828 197.114 179.717 197.28C178.607 197.447 177.565 197.53 176.593 197.53ZM175.427 181.161C174.761 181.161 174.178 181.272 173.678 181.494C173.206 181.716 172.817 182.008 172.511 182.369C172.206 182.702 171.97 183.091 171.803 183.535C171.664 183.951 171.581 184.382 171.553 184.826L178.676 183.66C178.593 183.104 178.287 182.549 177.76 181.994C177.232 181.438 176.455 181.161 175.427 181.161ZM195.83 196.822C195.552 196.905 195.108 196.989 194.497 197.072C193.914 197.155 193.303 197.197 192.664 197.197C192.053 197.197 191.498 197.155 190.998 197.072C190.526 196.989 190.123 196.822 189.79 196.572C189.457 196.322 189.193 195.989 188.999 195.572C188.832 195.128 188.749 194.559 188.749 193.865V181.369C188.749 180.73 188.86 180.189 189.082 179.744C189.332 179.272 189.679 178.856 190.123 178.495C190.568 178.134 191.109 177.815 191.748 177.537C192.414 177.231 193.122 176.968 193.872 176.745C194.622 176.523 195.399 176.357 196.205 176.246C197.01 176.107 197.815 176.037 198.62 176.037C199.953 176.037 201.009 176.301 201.786 176.829C202.564 177.329 202.952 178.162 202.952 179.328C202.952 179.717 202.897 180.105 202.786 180.494C202.675 180.855 202.536 181.188 202.369 181.494C201.786 181.494 201.189 181.522 200.578 181.577C199.967 181.633 199.37 181.716 198.787 181.827C198.204 181.938 197.649 182.063 197.121 182.202C196.621 182.313 196.191 182.452 195.83 182.619V196.822Z" fill="#36557D"/>
</svg>
