<svg width="159" height="89" viewBox="0 0 159 89" fill="none" xmlns="http://www.w3.org/2000/svg">
<path d="M119.657 17.9936C120.104 17.7304 120.775 17.4805 121.669 17.2437C122.59 17.0069 123.511 16.8885 124.432 16.8885C125.748 16.8885 126.905 17.0858 127.905 17.4805C128.931 17.8488 129.589 18.4408 129.878 19.2565C130.352 20.6247 130.865 22.2165 131.418 24.032C131.97 25.8474 132.523 27.7287 133.075 29.6757C133.628 31.5964 134.167 33.504 134.693 35.3984C135.22 37.2664 135.68 38.924 136.075 40.3712C135.759 40.7395 135.285 41.0289 134.654 41.2394C134.022 41.4762 133.273 41.5946 132.404 41.5946C131.773 41.5946 131.233 41.542 130.786 41.4368C130.365 41.3315 130.01 41.1736 129.721 40.9632C129.457 40.7527 129.234 40.4764 129.05 40.1344C128.892 39.7923 128.747 39.3976 128.615 38.9504L127.905 36.2272H120.762C120.551 37.0165 120.341 37.8321 120.13 38.6741C119.92 39.516 119.709 40.3317 119.499 41.121C119.13 41.2526 118.736 41.3578 118.315 41.4368C117.92 41.542 117.433 41.5946 116.854 41.5946C115.513 41.5946 114.513 41.371 113.855 40.9237C113.223 40.4501 112.908 39.8055 112.908 38.9898C112.908 38.6215 112.96 38.2531 113.066 37.8848C113.171 37.5164 113.289 37.0823 113.421 36.5824C113.605 35.872 113.855 34.9905 114.171 33.9381C114.513 32.8856 114.881 31.7543 115.276 30.544C115.67 29.3073 116.091 28.0444 116.539 26.7552C116.986 25.4659 117.407 24.2556 117.802 23.1242C118.196 21.9665 118.551 20.9404 118.867 20.0458C119.209 19.1512 119.472 18.4672 119.657 17.9936ZM124.393 23.0848C124.024 24.1898 123.603 25.4264 123.13 26.7946C122.682 28.1365 122.274 29.5047 121.906 30.8992H126.8C126.432 29.4784 126.05 28.097 125.655 26.7552C125.287 25.387 124.945 24.1635 124.629 23.0848H124.393ZM151.119 22.0981C149.093 22.0981 147.541 22.7164 146.462 23.953C145.383 25.1896 144.844 26.9393 144.844 29.2021C144.844 31.4912 145.436 33.254 146.62 34.4906C147.83 35.7272 149.448 36.3456 151.474 36.3456C152.553 36.3456 153.461 36.2008 154.197 35.9114C154.96 35.622 155.684 35.2931 156.368 34.9248C156.815 35.2931 157.157 35.7404 157.394 36.2666C157.657 36.7665 157.789 37.3585 157.789 38.0426C157.789 39.1214 157.184 40.0423 155.973 40.8053C154.789 41.542 152.974 41.9104 150.527 41.9104C148.764 41.9104 147.106 41.6604 145.554 41.1605C144.002 40.6606 142.647 39.8976 141.489 38.8714C140.331 37.819 139.41 36.5034 138.726 34.9248C138.069 33.3198 137.74 31.4122 137.74 29.2021C137.74 27.1498 138.055 25.3475 138.687 23.7952C139.345 22.2165 140.226 20.8878 141.331 19.809C142.463 18.7303 143.778 17.9146 145.278 17.3621C146.778 16.8096 148.383 16.5333 150.093 16.5333C152.513 16.5333 154.381 16.928 155.697 17.7173C157.039 18.5066 157.71 19.5196 157.71 20.7562C157.71 21.4403 157.539 22.0323 157.197 22.5322C156.855 23.0321 156.46 23.4268 156.013 23.7162C155.329 23.2689 154.592 22.8874 153.803 22.5717C153.04 22.256 152.145 22.0981 151.119 22.0981Z" fill="#6C91C0"/>
<path fill-rule="evenodd" clip-rule="evenodd" d="M75 2.33022e-08C78.8261 -0.000213109 82.5076 1.46163 85.2913 4.08642C88.075 6.71121 89.7505 10.3005 89.975 14.12L90 15V45C90.0002 48.8261 88.5384 52.5076 85.9136 55.2913C83.2888 58.075 79.6995 59.7505 75.88 59.975L75 60H15C11.1739 60.0002 7.49243 58.5384 4.7087 55.9136C1.92497 53.2888 0.249462 49.6995 0.0250006 45.88L2.33022e-08 45V15C-0.000213109 11.1739 1.46163 7.49243 4.08642 4.7087C6.71121 1.92497 10.3005 0.249462 14.12 0.0250006L15 2.33022e-08H75ZM75 40H15C13.6739 40 12.4021 40.5268 11.4645 41.4645C10.5268 42.4021 10 43.6739 10 45V50H80V45C80 43.6739 79.4732 42.4021 78.5355 41.4645C77.5979 40.5268 76.3261 40 75 40ZM70 15C68.6739 15 67.4021 15.5268 66.4645 16.4645C65.5268 17.4021 65 18.6739 65 20C65 21.3261 65.5268 22.5979 66.4645 23.5355C67.4021 24.4732 68.6739 25 70 25C71.3261 25 72.5979 24.4732 73.5355 23.5355C74.4732 22.5979 75 21.3261 75 20C75 18.6739 74.4732 17.4021 73.5355 16.4645C72.5979 15.5268 71.3261 15 70 15Z" fill="#6C91C0"/>
<line x1="6.15425" y1="80.5161" x2="81.5161" y2="7.84575" stroke="#FF0000" stroke-width="12" stroke-linecap="round"/>
<line x1="8.48512" y1="7.05206" x2="81.0521" y2="80.5149" stroke="#FF0000" stroke-width="12" stroke-linecap="round"/>
</svg>
