<svg width="20" height="15" viewBox="0 0 20 15" fill="none" xmlns="http://www.w3.org/2000/svg">
<path d="M20 3.26624C20.0009 4.05499 19.7302 4.82 19.2334 5.43262L12.2174 13.9315C11.9521 14.2648 11.615 14.5339 11.2313 14.7189C10.8475 14.9039 10.427 15 10.001 15C9.57496 15 9.15443 14.9039 8.77069 14.7189C8.38694 14.5339 8.04986 14.2648 7.78452 13.9315L0.768538 5.43262C0.358568 4.92097 0.10058 4.30444 0.0239725 3.6533C-0.0526348 3.00216 0.0552199 2.3426 0.335247 1.74977C0.562357 1.23455 0.932977 0.795585 1.40284 0.485308C1.87271 0.17503 2.42195 0.0065546 2.98499 0H17.017C17.58 0.0065546 18.1292 0.17503 18.5991 0.485308C19.069 0.795585 19.4396 1.23455 19.6667 1.74977C19.8848 2.22567 19.9984 2.74275 20 3.26624Z" fill="#6C91C0"/>
</svg>
