<svg width="15" height="20" viewBox="0 0 15 20" fill="none" xmlns="http://www.w3.org/2000/svg">
<path d="M3.26624 20C4.05499 20.0009 4.82 19.7302 5.43262 19.2334L13.9315 12.2174C14.2648 11.9521 14.5339 11.615 14.7189 11.2313C14.9039 10.8475 15 10.427 15 10.001C15 9.57496 14.9039 9.15443 14.7189 8.77069C14.5339 8.38694 14.2648 8.04986 13.9315 7.78452L5.43262 0.768538C4.92097 0.358568 4.30444 0.10058 3.6533 0.0239725C3.00216 -0.0526348 2.3426 0.0552199 1.74977 0.335247C1.23455 0.562357 0.795585 0.932977 0.485308 1.40284C0.17503 1.87271 0.0065546 2.42195 0 2.98499V17.017C0.0065546 17.58 0.17503 18.1292 0.485308 18.5991C0.795585 19.069 1.23455 19.4396 1.74977 19.6667C2.22567 19.8848 2.74275 19.9984 3.26624 20ZM11.3652 10.001L3.3329 16.667V3.48494L11.3652 10.001Z" fill="#6C91C0"/>
</svg>
