<svg width="20" height="15" viewBox="0 0 20 15" fill="none" xmlns="http://www.w3.org/2000/svg">
<path d="M1.90735e-06 11.7338C-0.000940323 10.945 0.269764 10.18 0.766592 9.56738L7.78258 1.06849C8.04791 0.735212 8.385 0.46606 8.76874 0.281066C9.15249 0.0960718 9.57302 0 9.99903 0C10.425 0 10.8456 0.0960718 11.2293 0.281066C11.6131 0.46606 11.9501 0.735212 12.2155 1.06849L19.2315 9.56738C19.6414 10.079 19.8994 10.6956 19.976 11.3467C20.0526 11.9978 19.9448 12.6574 19.6648 13.2502C19.4376 13.7655 19.067 14.2044 18.5972 14.5147C18.1273 14.825 17.578 14.9934 17.015 15H2.98305C2.42001 14.9934 1.87076 14.825 1.4009 14.5147C0.931032 14.2044 0.560415 13.7655 0.333303 13.2502C0.115208 12.7743 0.0015564 12.2572 1.90735e-06 11.7338Z" fill="#6C91C0"/>
</svg>
