<svg width="45" height="45" viewBox="0 0 45 45" fill="none" xmlns="http://www.w3.org/2000/svg">
<path d="M35.4559 41.3699H2.95466V8.86872H22.4849L25.4396 5.91406H2.95466C2.17103 5.91406 1.4195 6.22536 0.865399 6.77946C0.311293 7.33357 0 8.0851 0 8.86872V41.3699C0 42.1536 0.311293 42.9051 0.865399 43.4592C1.4195 44.0133 2.17103 44.3246 2.95466 44.3246H35.4559C36.2395 44.3246 36.991 44.0133 37.5451 43.4592C38.0992 42.9051 38.4105 42.1536 38.4105 41.3699V19.21L35.4559 22.1647V41.3699Z" fill="#6C91C0"/>
<path d="M43.6255 5.67755L38.6469 0.698951C38.426 0.477397 38.1635 0.301614 37.8745 0.181676C37.5855 0.0617376 37.2757 0 36.9628 0C36.6499 0 36.3401 0.0617376 36.0511 0.181676C35.7621 0.301614 35.4996 0.477397 35.2786 0.698951L15.0245 21.0713L13.3846 28.1773C13.3148 28.5217 13.3221 28.8774 13.4061 29.2186C13.4901 29.5599 13.6488 29.8783 13.8705 30.151C14.0923 30.4236 14.3718 30.6437 14.6888 30.7955C15.0058 30.9472 15.3526 31.0268 15.704 31.0285C15.8857 31.0484 16.069 31.0484 16.2506 31.0285L23.4157 29.4478L43.6255 9.04586C43.8471 8.82491 44.0229 8.56242 44.1428 8.27342C44.2627 7.98442 44.3245 7.6746 44.3245 7.3617C44.3245 7.0488 44.2627 6.73898 44.1428 6.44998C44.0229 6.16099 43.8471 5.8985 43.6255 5.67755ZM21.8793 26.7147L16.4722 27.9113L17.728 22.5486L32.974 7.1992L37.1401 11.3653L21.8793 26.7147ZM38.8094 9.69588L34.6434 5.52981L36.9332 3.19564L41.1288 7.39125L38.8094 9.69588Z" fill="#6C91C0"/>
</svg>
